<svg xmlns="http://www.w3.org/2000/svg" viewBox="0 0 100 100" width="100" height="100">
  <rect width="100" height="100" rx="15" fill="#1e293b"/>
  <rect x="10" y="10" width="80" height="25" rx="5" fill="#334155"/>
  <rect x="10" y="45" width="17" height="12" rx="3" fill="#64748b"/>
  <rect x="32" y="45" width="17" height="12" rx="3" fill="#64748b"/>
  <rect x="54" y="45" width="17" height="12" rx="3" fill="#64748b"/>
  <rect x="76" y="45" width="14" height="12" rx="3" fill="#f97316"/>
  <rect x="10" y="62" width="17" height="12" rx="3" fill="#64748b"/>
  <rect x="32" y="62" width="17" height="12" rx="3" fill="#64748b"/>
  <rect x="54" y="62" width="17" height="12" rx="3" fill="#64748b"/>
  <rect x="76" y="62" width="14" height="12" rx="3" fill="#f97316"/>
  <rect x="10" y="79" width="39" height="12" rx="3" fill="#64748b"/>
  <rect x="54" y="79" width="17" height="12" rx="3" fill="#64748b"/>
  <rect x="76" y="79" width="14" height="12" rx="3" fill="#f97316"/>
</svg>
